<svg xmlns="http://www.w3.org/2000/svg" xmlns:xlink="http://www.w3.org/1999/xlink" xmlns:inkscape="http://www.inkscape.org/namespaces/inkscape" version="1.1" width="611.64797" height="792" viewBox="0 0 611.64797 792">
<defs>
<clipPath id="clip_1">
<path transform="matrix(1,0,0,-1,-.176,792)" d="M.176 0H611.824V792H.176Z" clip-rule="evenodd"/>
</clipPath>
<clipPath id="clip_2">
<path transform="matrix(1,0,0,-1,-.176,792)" d="M509.62 685.584H101.95099V122.474H509.62ZM101.951 685.584"/>
</clipPath>
<clipPath id="clip_3">
<path transform="matrix(1,0,0,-1,-.176,792)" d="M509.62 685.584H101.95099V122.474H509.62ZM101.951 685.584"/>
</clipPath>
</defs>
<g clip-path="url(#clip_1)">
<path transform="matrix(1,0,0,-1,186.90901,129.867)" stroke-width="1.034" stroke-linecap="butt" stroke-miterlimit="10" stroke-linejoin="miter" fill="none" stroke="#030404" d="M0 0C0-11.846-18.416-21.448-41.133-21.448-63.851-21.448-82.267-11.846-82.267 0-82.267 11.846-63.851 21.448-41.133 21.448-18.416 21.448 0 11.846 0 0Z"/>
<path transform="matrix(1,0,0,-1,186.90901,223.593)" stroke-width="1.034" stroke-linecap="butt" stroke-miterlimit="10" stroke-linejoin="miter" fill="none" stroke="#030404" d="M0 0H-82.267V52.298H0Z"/>
<path transform="matrix(1,0,0,-1,186.90901,305.86)" stroke-width="1.034" stroke-linecap="butt" stroke-miterlimit="10" stroke-linejoin="miter" fill="none" stroke="#030404" d="M0 0H-82.267V62.288H0Z"/>
<path transform="matrix(1,0,0,-1,186.90901,376.375)" stroke-width="1.034" stroke-linecap="butt" stroke-miterlimit="10" stroke-linejoin="miter" fill="none" stroke="#030404" d="M0 0H-82.267V53.474H0Z"/>
<g clip-path="url(#clip_2)">
<path transform="matrix(1,0,0,-1,186.90901,450.415)" stroke-width="1.034" stroke-linecap="butt" stroke-miterlimit="10" stroke-linejoin="miter" fill="none" stroke="#030404" d="M0 0H-84.617V55.53H0Z"/>
<path transform="matrix(1,0,0,-1,186.90901,525.631)" stroke-width="1.034" stroke-linecap="butt" stroke-miterlimit="10" stroke-linejoin="miter" fill="none" stroke="#030404" d="M0 0H-84.617V56.412H0Z"/>
<path transform="matrix(1,0,0,-1,186.90901,597.321)" stroke-width="1.034" stroke-linecap="butt" stroke-miterlimit="10" stroke-linejoin="miter" fill="none" stroke="#030404" d="M0 0H-84.617V55.236H0Z"/>
<path transform="matrix(1,0,0,-1,186.90901,669.01)" stroke-width="1.034" stroke-linecap="butt" stroke-miterlimit="10" stroke-linejoin="miter" fill="none" stroke="#030404" d="M0 0H-84.617V56.41H0Z"/>
</g>
<path transform="matrix(1,0,0,-1,322.651,161.305)" stroke-width="1.034" stroke-linecap="butt" stroke-miterlimit="10" stroke-linejoin="miter" fill="none" stroke="#030404" d="M0 0H-82.855V52.886H0Z"/>
<path transform="matrix(1,0,0,-1,322.651,232.995)" stroke-width="1.034" stroke-linecap="butt" stroke-miterlimit="10" stroke-linejoin="miter" fill="none" stroke="#030404" d="M0 0H-82.855V52.298H0Z"/>
<path transform="matrix(1,0,0,-1,322.651,305.86)" stroke-width="1.034" stroke-linecap="butt" stroke-miterlimit="10" stroke-linejoin="miter" fill="none" stroke="#030404" d="M0 0H-82.855V52.886H0Z"/>
<path transform="matrix(1,0,0,-1,322.651,369.21699)" stroke-width="1.034" stroke-linecap="butt" stroke-miterlimit="10" stroke-linejoin="miter" fill="none" stroke="#030404" d="M0 0H-82.855V42.79H0Z"/>
<path transform="matrix(1,0,0,-1,322.651,594.97097)" stroke-width="1.034" stroke-linecap="butt" stroke-miterlimit="10" stroke-linejoin="miter" fill="none" stroke="#030404" d="M0 0H-82.855V46.472H0Z"/>
<path transform="matrix(1,0,0,-1,322.651,669.00997)" stroke-width="1.034" stroke-linecap="butt" stroke-miterlimit="10" stroke-linejoin="miter" fill="none" stroke="#030404" d="M0 0H-82.855V56.41H0Z"/>
<path transform="matrix(1,0,0,-1,488.36,669.00997)" stroke-width="1.034" stroke-linecap="butt" stroke-miterlimit="10" stroke-linejoin="miter" fill="none" stroke="#030404" d="M0 0H-82.855V56.41H0Z"/>
<path transform="matrix(1,0,0,-1,488.36,597.3209)" stroke-width="1.034" stroke-linecap="butt" stroke-miterlimit="10" stroke-linejoin="miter" fill="none" stroke="#030404" d="M0 0H-82.855V55.236H0Z"/>
<path transform="matrix(1,0,0,-1,488.36,525.6309)" stroke-width="1.034" stroke-linecap="butt" stroke-miterlimit="10" stroke-linejoin="miter" fill="none" stroke="#030404" d="M0 0H-82.855V56.412H0Z"/>
<path transform="matrix(1,0,0,-1,488.36,452.76594)" stroke-width="1.034" stroke-linecap="butt" stroke-miterlimit="10" stroke-linejoin="miter" fill="none" stroke="#030404" d="M0 0H-82.855V55.236H0Z"/>
<path transform="matrix(1,0,0,-1,488.36,378.7249)" stroke-width="1.034" stroke-linecap="butt" stroke-miterlimit="10" stroke-linejoin="miter" fill="none" stroke="#030404" d="M0 0H-82.855V55.824H0Z"/>
<path transform="matrix(1,0,0,-1,488.36,305.85993)" stroke-width="1.034" stroke-linecap="butt" stroke-miterlimit="10" stroke-linejoin="miter" fill="none" stroke="#030404" d="M0 0H-82.855V55.824H0Z"/>
<path transform="matrix(1,0,0,-1,488.36,232.99494)" stroke-width="1.034" stroke-linecap="butt" stroke-miterlimit="10" stroke-linejoin="miter" fill="none" stroke="#030404" d="M0 0H-82.855V52.298H0Z"/>
<path transform="matrix(1,0,0,-1,145.77597,151.31494)" stroke-width="1.034" stroke-linecap="butt" stroke-miterlimit="10" stroke-linejoin="miter" fill="none" stroke="#030404" d="M0 0V-13.805"/>
<path transform="matrix(1,0,0,-1,141.946,162.21503)" d="M0 0 3.83-1.627 7.66 0 3.83-9.079 0 0" fill="#030404"/>
<path transform="matrix(1,0,0,-1,145.776,223.59198)" stroke-width="1.034" stroke-linecap="butt" stroke-miterlimit="10" stroke-linejoin="miter" fill="none" stroke="#030404" d="M0 0V-13.805"/>
<path transform="matrix(1,0,0,-1,141.946,234.49298)" d="M0 0 3.83-1.627 7.66 0 3.83-9.078 0 0" fill="#030404"/>
<path transform="matrix(1,0,0,-1,145.776,305.86)" stroke-width="1.034" stroke-linecap="butt" stroke-miterlimit="10" stroke-linejoin="miter" fill="none" stroke="#030404" d="M0 0V-10.867"/>
<path transform="matrix(1,0,0,-1,141.946,313.822)" d="M0 0 3.83-1.627 7.66 0 3.83-9.079 0 0" fill="#030404"/>
<path transform="matrix(1,0,0,-1,145.776,376.375)" stroke-width="1.034" stroke-linecap="butt" stroke-miterlimit="10" stroke-linejoin="miter" fill="none" stroke="#030404" d="M0 0V-12.336"/>
<path transform="matrix(1,0,0,-1,141.946,385.806)" d="M0 0 3.83-1.627 7.66 0 3.83-9.079 0 0" fill="#030404"/>
<path transform="matrix(1,0,0,-1,145.776,450.415)" stroke-width="1.034" stroke-linecap="butt" stroke-miterlimit="10" stroke-linejoin="miter" fill="none" stroke="#030404" d="M0 0V-12.63"/>
<path transform="matrix(1,0,0,-1,141.946,460.14)" d="M0 0 3.83-1.627 7.66 0 3.83-9.079 0 0" fill="#030404"/>
<path transform="matrix(1,0,0,-1,144.601,525.631)" stroke-width="1.034" stroke-linecap="butt" stroke-miterlimit="10" stroke-linejoin="miter" fill="none" stroke="#030404" d="M0 0V-10.279"/>
<path transform="matrix(1,0,0,-1,140.77101,533.005)" d="M0 0 3.83-1.627 7.66 0 3.83-9.079 0 0" fill="#030404"/>
<path transform="matrix(1,0,0,-1,145.776,597.32)" stroke-width="1.034" stroke-linecap="butt" stroke-miterlimit="10" stroke-linejoin="miter" fill="none" stroke="#030404" d="M0 0V-9.105"/>
<path transform="matrix(1,0,0,-1,141.946,603.52)" d="M0 0 3.83-1.627 7.66 0 3.83-9.079 0 0" fill="#030404"/>
<path transform="matrix(1,0,0,-1,186.90901,640.806)" stroke-width="1.034" stroke-linecap="butt" stroke-miterlimit="10" stroke-linejoin="miter" fill="none" stroke="#030404" d="M0 0H19.392V505.945H46.712"/>
<path transform="matrix(1,0,0,-1,230.71701,138.69098)" d="M0 0 1.627 3.83 0 7.66 9.078 3.83 0 0" fill="#030404"/>
<path transform="matrix(1,0,0,-1,281.223,161.305)" stroke-width="1.034" stroke-linecap="butt" stroke-miterlimit="10" stroke-linejoin="miter" fill="none" stroke="#030404" d="M0 0V-13.217"/>
<path transform="matrix(1,0,0,-1,277.393,171.617)" d="M0 0 3.83-1.627 7.66 0 3.83-9.079 0 0" fill="#030404"/>
<path transform="matrix(1,0,0,-1,281.223,233.58197)" stroke-width="1.034" stroke-linecap="butt" stroke-miterlimit="10" stroke-linejoin="miter" fill="none" stroke="#030404" d="M0 0V-13.218"/>
<path transform="matrix(1,0,0,-1,277.393,243.89502)" d="M0 0 3.83-1.627 7.66 0 3.83-9.078 0 0" fill="#030404"/>
<path transform="matrix(1,0,0,-1,281.223,305.86)" stroke-width="1.034" stroke-linecap="butt" stroke-miterlimit="10" stroke-linejoin="miter" fill="none" stroke="#030404" d="M0 0V-14.393"/>
<path transform="matrix(1,0,0,-1,277.393,317.348)" d="M0 0 3.83-1.627 7.66 0 3.83-9.079 0 0" fill="#030404"/>
<path transform="matrix(1,0,0,-1,281.381,369.323)" stroke-width="1.034" stroke-linecap="butt" stroke-miterlimit="10" stroke-linejoin="miter" fill="none" stroke="#030404" d="M0 0V-12.63"/>
<path transform="matrix(1,0,0,-1,277.551,379.048)" d="M0 0 3.83-1.627 7.66 0 3.83-9.079 0 0" fill="#030404"/>
<path transform="matrix(1,0,0,-1,334.185,426.199)" stroke-width="1.034" stroke-linecap="butt" stroke-miterlimit="10" stroke-linejoin="miter" fill="none" stroke="#030404" d="M0 0-52.962-38.366-105.924 0-52.962 38.366 0 0Z"/>
<path transform="matrix(1,0,0,-1,280.93,464.565)" stroke-width="1.034" stroke-linecap="butt" stroke-miterlimit="10" stroke-linejoin="miter" fill="none" stroke="#030404" d="M0 0V-15.351"/>
<path transform="matrix(1,0,0,-1,277.099,477.012)" d="M0 0 3.83-1.627 7.66 0 3.83-9.079 0 0" fill="#030404"/>
<path transform="matrix(1,0,0,-1,281.223,527.147)" stroke-width="1.034" stroke-linecap="butt" stroke-miterlimit="10" stroke-linejoin="miter" fill="none" stroke="#030404" d="M0 0V-15.177"/>
<path transform="matrix(1,0,0,-1,277.393,539.419)" d="M0 0 3.83-1.627 7.66 0 3.83-9.079 0 0" fill="#030404"/>
<path transform="matrix(1,0,0,-1,281.223,594.97)" stroke-width="1.034" stroke-linecap="butt" stroke-miterlimit="10" stroke-linejoin="miter" fill="none" stroke="#030404" d="M0 0V-11.455"/>
<path transform="matrix(1,0,0,-1,277.393,603.52)" d="M0 0 3.83-1.627 7.66 0 3.83-9.079 0 0" fill="#030404"/>
<path transform="matrix(1,0,0,-1,334.185,426.199)" stroke-width="1.034" stroke-linecap="butt" stroke-miterlimit="10" stroke-linejoin="miter" fill="none" stroke="#030404" d="M0 0H20.059V289.575H65.146"/>
<path transform="matrix(1,0,0,-1,396.427,140.45398)" d="M0 0 1.627 3.83 0 7.66 9.078 3.83 0 0" fill="#030404"/>
<g clip-path="url(#clip_3)">
<path transform="matrix(1,0,0,-1,488.36003,136.62403)" stroke-width="1.034" stroke-linecap="butt" stroke-miterlimit="10" stroke-linejoin="miter" fill="none" stroke="#030404" d="M0 0H20.566V-144.787H6.174"/>
</g>
<path transform="matrix(1,0,0,-1,497.439,277.58198)" d="M0 0-1.627-3.83 0-7.66-9.078-3.83 0 0" fill="#030404"/>
<path transform="matrix(1,0,0,-1,446.933,305.86)" stroke-width="1.034" stroke-linecap="butt" stroke-miterlimit="10" stroke-linejoin="miter" fill="none" stroke="#030404" d="M0 0V-10.867"/>
<path transform="matrix(1,0,0,-1,443.103,313.822)" d="M0 0 3.83-1.627 7.66 0 3.83-9.079 0 0" fill="#030404"/>
<path transform="matrix(1,0,0,-1,446.933,378.725)" stroke-width="1.034" stroke-linecap="butt" stroke-miterlimit="10" stroke-linejoin="miter" fill="none" stroke="#030404" d="M0 0V-12.63"/>
<path transform="matrix(1,0,0,-1,443.103,388.45)" d="M0 0 3.83-1.627 7.66 0 3.83-9.079 0 0" fill="#030404"/>
<path transform="matrix(1,0,0,-1,446.933,452.765)" stroke-width="1.034" stroke-linecap="butt" stroke-miterlimit="10" stroke-linejoin="miter" fill="none" stroke="#030404" d="M0 0V-10.279"/>
<path transform="matrix(1,0,0,-1,443.103,460.14)" d="M0 0 3.83-1.627 7.66 0 3.83-9.079 0 0" fill="#030404"/>
<path transform="matrix(1,0,0,-1,446.933,525.631)" stroke-width="1.034" stroke-linecap="butt" stroke-miterlimit="10" stroke-linejoin="miter" fill="none" stroke="#030404" d="M0 0V-10.279"/>
<path transform="matrix(1,0,0,-1,443.103,533.005)" d="M0 0 3.83-1.627 7.66 0 3.83-9.079 0 0" fill="#030404"/>
<path transform="matrix(1,0,0,-1,446.933,597.32)" stroke-width="1.034" stroke-linecap="butt" stroke-miterlimit="10" stroke-linejoin="miter" fill="none" stroke="#030404" d="M0 0V-9.105"/>
<path transform="matrix(1,0,0,-1,443.103,603.52)" d="M0 0 3.83-1.627 7.66 0 3.83-9.079 0 0" fill="#030404"/>
<text fill="#030404" xml:space="preserve" transform="matrix(1 0 -0 1 -.176 792)" font-size="6.2053" font-family="ArialMT"><tspan y="-662.1333" x="115.9451 120.42532 123.87547 125.60055 129.05069 131.11705 136.28607 137.66365 141.1138 144.56395 146.28902 149.73917 152.84181 155.94446 159.3946 162.84476 166.2949 169.74506 172.8477">Determine occupancy</tspan><tspan y="-654.68698" x="125.25305 126.97813 130.42827 132.15334 135.60349 139.05364 140.7787 144.22885 146.29521 149.74536 151.47043 154.92058 158.02323 159.74829 163.19844">to be protected</tspan><tspan y="-603.70858" x="112.182209 116.321147 119.77129 123.22144 124.94652 128.39667 131.49932 134.60196 138.05211 141.50226 144.95241 148.40256 151.5052 154.60785 156.67421 159.77686 163.227 166.67716 169.7798 171.15738 172.88245 174.26003">See occupancy-specific</tspan><tspan y="-596.2628" x="112.177867 115.62801 119.07816 120.80324 124.25339 125.97846 129.08112 132.53127 135.98142 139.43157 141.15663 142.8817 144.60677 148.05692 149.78199 153.23213 156.68228 158.40735 161.8575 163.92386 169.09288 170.47046 173.92061">data sheet to determine</tspan><tspan y="-588.81649" x="112.35782 114.42419 117.87434 120.97699 124.42714 129.59616 134.76519 138.21533 141.66548 145.11563 148.56578 152.01593 153.741 156.84365 160.2938 162.36016 163.73773 167.18788 170.29053 171.6681 175.11826">recommended sprinkler</tspan><tspan y="-581.3695" x="124.94589 128.04854 131.15119 134.25383 135.9789 139.42905 144.59807 146.32314 149.77329 153.22344 156.32608 157.70366 161.15381">system design</tspan><tspan y="-533.03958" x="118.87338 123.01232 126.46247 129.91262 131.63768 133.01526 134.74033 136.4654 138.19046 141.64061 145.09076 147.15712 150.60727 152.33234 155.78249 157.84885 161.299 163.02407 166.47422 169.92436">See if there are any</tspan><tspan y="-525.5932" x="121.29159 123.357959 126.808109 129.91075 133.3609 138.52993 143.69895 147.1491 150.59925 154.0494 157.49954 159.22461 160.60219 164.05234 167.50249">recommendations</tspan><tspan y="-518.14688" x="111.28678 114.389438 117.839588 121.289737 124.39239 125.769969 127.49504 128.87262 131.97527 133.70034 135.4254 138.87555 140.60062 142.32569 145.77584 149.22599 150.95105 154.4012 157.50385 160.60649 164.05664 167.50679 170.95694 174.40709 177.50974">specific to the occupancy</tspan><tspan y="-510.7005" x="114.561939 116.28701 119.73716 123.18731 124.912387 126.63746 131.11769 134.56784 138.01799 139.39557 142.84572 144.57079 148.02094 151.12358 154.57373 156.64009 158.70645 162.1566 163.53418 166.98433 168.7094 170.43447 173.88462">that would overrule the</tspan><tspan y="-503.25416" x="118.014568 120.08093 123.53108 126.633739 130.08388 135.2529 140.42192 143.87207 147.32222 150.77237 154.22252 155.94759 157.32517 160.77532 164.22547 167.32811 169.05318 170.43076">recommendations in</tspan><tspan y="-495.8078" x="125.08178 129.56201 133.01216 134.73723 138.18738 139.91245 144.05138 147.50153 150.95168 154.40183 156.12689 157.85196 161.30211 163.36847">Data Sheet 2-0</tspan><tspan y="-453.83329" x="116.11946 120.2584 123.70855 125.77492 127.1525 130.60265 133.70529 135.08287 138.53302 140.59938 142.32445 145.7746 147.84096 151.2911 153.01618 156.46633 159.56897 161.29404 162.67162 166.12177 169.57192 171.29698 172.67456">Sprinkler protection is</tspan><tspan y="-446.38694" x="119.90097 123.35112 126.80127 130.25142 133.70157 137.15172 140.60187 142.32694 144.052 147.50215 149.56851 153.01866 156.46881 159.91896 163.36911 166.81926 170.26941">needed throughout</tspan><tspan y="-438.94059" x="121.288478 124.738628 127.84128 130.94393 134.39408 137.84423 141.29438 144.74452 147.84717 150.94982 152.67488 156.12503 159.57518 160.95276 164.40291 167.50556">occupancy unless</tspan><tspan y="-431.49424" x="116.11512 117.4927 120.94285 124.393 125.77058 128.87323 132.32338 134.04845 137.4986 140.94875 142.67382 146.12397 147.84903 151.29918 154.74933 156.81569 161.29592 162.6735 165.77614 169.22629 170.95136 172.32894">indicated otherwise in</tspan><tspan y="-424.04789" x="127.84128 131.98021 135.43036 138.533 140.25807 141.63565 145.0858 148.53595 150.26102 153.71117 155.43624 158.88639 160.61145">Section 2.1.2</tspan><tspan y="-373.20414" x="117.86688 122.00582 125.45597 128.90612 130.29113 134.43006 137.8802 141.33036 144.7805 148.23065 151.6808 153.05838 156.16103 157.54604 161.68497 163.41004 165.1351 168.58525">See Appendix A, as</tspan><tspan y="-365.75779" x="110.62716 114.07731 117.52746 120.97761 124.42776 127.87791 131.32805 133.05312 134.77819 136.50325 139.9534 142.01976 143.74483 147.19498 148.92005 152.3702 153.74777 157.19792 160.30057 163.40322 166.85337 168.91973 172.02237 173.74744 177.19759">needed, for a glossary of</tspan><tspan y="-358.31144" x="137.02079 138.74585 142.196 144.26236 149.43138">terms</tspan><tspan y="-297.79176" x="121.45851 125.59745 129.04759 132.49774 134.22281 138.36174 141.81189 144.91454 146.6396 148.01718 151.46733 154.91748 156.64255 160.0927 161.81777 165.26792 166.99298">See Section 2.1.3</tspan><tspan y="-290.3454" x="107.32098 109.387348 112.837497 116.28764 119.73779 121.80416 125.25431 126.63189 130.08203 133.53218 135.25725 137.32361 140.77376 143.8764 147.32656 152.49558 157.6646 161.11475 164.5649 168.01505 171.4652 173.19026 174.56784 178.01799 181.46814">regarding recommendations</tspan><tspan y="-282.89906" x="118.877109 120.60218 124.05233 126.1187 127.84377 129.56885 133.019 136.46915 138.19422 142.67444 146.12459 147.84966 151.2998 153.36617 155.09123 158.19388 161.64403 165.09418 168.54433 169.9219">for the water supply</tspan><tspan y="-230.44255" x="115.80052 119.93946 123.38961 126.83976 128.56484 132.70377 136.15392 139.25656 140.98163 142.3592 145.80936 149.2595 150.98458 154.43473 156.15979 159.60994 161.335 164.78516 166.51023 168.23529 171.68544">See Section 2.1.4 for</tspan><tspan y="-222.99681" x="108.90457 112.35472 115.80487 119.25502 122.70517 124.77154 128.22168 129.59926 131.32433 133.39069 136.84084 139.94348 143.39363 148.56266 153.73168 157.18183 160.63198 164.08213 167.53227 169.25734 170.63492 174.08507 177.53522">general recommendations</tspan><tspan y="-215.55045" x="106.66818 108.39326 111.84341 113.909778 115.63485 117.359928 120.810077 124.26022 125.9853 129.08795 132.5381 134.60446 135.98204 139.43219 142.53484 143.91242 147.36257 149.42893 151.15399 154.25664 157.35929 160.46193 162.187 165.63715 170.80617 172.53124 175.98139 179.43154">for the sprinkler system and</tspan><tspan y="-208.10347" x="123.91023 125.28781 127.012889 130.11554 131.8406 134.94326 138.3934 143.56243 147.01258 150.46273 153.91287 157.36302 160.81317 162.53824">its components</tspan><tspan y="-159.29692" x="115.80052 119.93946 123.38961 126.83976 128.56484 132.70377 136.15392 139.25656 140.98163 142.3592 145.80936 149.2595 150.98458 154.43473 156.15979 159.60994 161.335 164.78516 166.51023 168.23529 171.68544">See Section 2.1.5 for</tspan><tspan y="-151.85056" x="119.77129 123.22144 126.67159 128.39667 131.84682 135.29697 137.02204 138.39962 141.84976 143.22734 144.95241 148.40256 150.12763 153.57778 157.02793 159.09429 160.81935 164.6108">potential other FM</tspan><tspan y="-144.40419" x="111.83409 116.66181 118.03939 121.48954 124.93969 128.38983 129.76741 131.49248 135.9727 139.42285 141.14792 144.59807 146.32314 150.46207 153.91222 157.36237 160.81252 162.53759 165.64023 167.3653 169.09037 172.54051 175.99066">Global Data Sheets that</tspan><tspan y="-136.95783" x="115.62615 118.728809 122.178958 125.629108 129.07926 130.45684 133.90699 135.63205 139.0822 142.53235 144.25742 146.32378 149.77393 151.499 154.94915 157.0155 160.46566 163.9158 167.01845 170.4686">should be referenced</tspan><tspan y="-666.3152" x="255.01084 259.14979 262.5999 266.05006 267.77513 271.91407 275.3642 278.46687 280.19194 281.5695 285.01963 288.46977 290.19483 293.64497 295.37004 298.82017 300.54524 302.2703 305.72044">See Section 2.2 for</tspan><tspan y="-658.86886" x="245.53162 247.59798 251.04813 254.15077 257.60093 262.76994 267.93894 271.38908 274.8392 278.28935 281.73948 283.46455 284.8421 288.29225 291.74238 294.84504 296.5701 299.67277 303.1229 306.57304 309.6757 311.05326 312.77833 314.15589">recommendations specific</tspan><tspan y="-651.4225" x="250.875 252.60007 256.0502 257.77528 259.50035 262.95048 266.4006 268.12568 269.85075 272.9534 276.40354 279.85368 281.57875 285.02888 286.75395 288.479 291.58168 295.0318 297.09819 298.47575 301.92588 305.02854 306.4061 309.85624">to the type of sprinkler</tspan><tspan y="-643.97616" x="251.56565 254.66829 257.77095 260.8736 262.59867 266.0488 271.2178 272.94288 274.66795 278.11808 279.84315 283.29328 286.7434 288.46849 289.84605 293.29618 296.39884 298.1239 301.57405 302.9516 304.32917 307.7793">system to be installed</tspan><tspan y="-594.5565" x="255.01082 259.14976 262.59989 266.05003 267.7751 271.91404 275.36418 278.46684 280.1919 281.56947 285.0196 288.46974 290.1948 293.64494 295.37 298.82014 300.5452 302.27027 305.7204">See Section 2.3 for</tspan><tspan y="-587.11019" x="245.5316 247.59796 251.04811 254.15076 257.6009 262.7699 267.9389 271.38905 274.83918 278.2893 281.73945 283.4645 284.84208 288.2922 291.74235 294.845 296.57008 299.67274 303.12287 306.573 309.67567 311.05323 312.7783 314.15586">recommendations specific</tspan><tspan y="-579.6638" x="248.17816 249.90323 253.35338 255.07845 256.80354 260.25367 263.7038 265.42887 268.53153 271.98167 274.04804 275.4256 278.87574 281.9784 283.35597 286.8061 288.87248 290.59754 293.7002 296.80287 299.90553 301.63059 305.08073 310.24974 311.51747">to the sprinkler system&#x2019;s</tspan><tspan y="-572.21749" x="264.49687 267.59953 271.04966 276.21867 279.6688 283.11894 286.56907 290.0192 293.46934 295.1944">components</tspan><tspan y="-524.0283" x="255.0102 259.14915 262.59928 266.0494 267.77449 271.91343 275.36357 278.46623 280.19129 281.56886 285.01899 288.46913 290.19419 293.64433 295.3694 298.81953 300.5446 302.26966 305.7198">See Section 2.4 for</tspan><tspan y="-516.582" x="245.53098 247.59734 251.04749 254.15013 257.60029 262.7693 267.9383 271.38844 274.83857 278.2887 281.73884 283.4639 284.84147 288.2916 291.74174 294.8444 296.56947 299.67213 303.12226 306.5724 309.67506 311.0526 312.77769 314.15525">recommendations specific</tspan><tspan y="-509.13563" x="253.46012 255.18518 258.6353 260.36039 262.08546 265.53559 268.98573 270.7108 273.81346 277.26359 279.32997 280.70753 284.15766 287.2603 288.63789 292.088 294.1544 295.87947 299.3296 300.70716 304.1573 307.60743">to the sprinkler pipe,</tspan><tspan y="-501.68864" x="249.66062 251.0382 252.76326 255.8659 257.59098 260.69364 264.14378 267.5939 271.04405 274.49418 277.59684 279.3219 280.69947 284.1496 287.59974 289.3248 291.04988 294.5 297.95014 301.40028 304.8504 306.22798 309.6781">its connection, hanging</tspan><tspan y="-494.2429" x="265.18443 268.63456 272.0847 275.53483 277.2599 280.71003 282.7764 286.22654 289.3292 290.70677 294.1569">and bracing</tspan><tspan y="-450.03883" x="252.58022 256.71916 260.16929 263.61943 265.34449 269.48344 272.93357 276.03623 277.7613 279.13887 282.589 286.03913 287.7642 291.21434 292.9394 296.38954 298.1146 301.56474 303.2898 305.01487 308.465">See Section 2.5.1 for</tspan><tspan y="-442.59248" x="245.68489 249.13504 252.58519 256.03535 259.48548 261.55186 265.00199 266.37956 268.1046 270.171 273.62113 276.7238 280.17393 285.34294 290.51194 293.96208 297.4122 300.86235 304.31248 306.03755 307.4151 310.86524 314.31538">general recommendations</tspan><tspan y="-435.14613" x="263.7994 265.52449 268.9746 271.041 272.76606 275.8687 279.31886 281.38523 282.7628 286.21293 289.31559 290.69316 294.14329 296.20967">for sprinklers</tspan><tspan y="-381.62168" x="259.13429 260.85935 263.962 265.68708 267.41215 270.86228 274.3124 276.03749 279.4876 281.554 285.00413 288.45426 290.17933 291.9044 295.35453 297.0796 300.52973">Is the area to be</tspan><tspan y="-374.17594" x="249.82633 253.27648 255.34284 258.79298 260.51805 263.96818 267.07084 268.7959 272.24604 275.69618 277.42124 280.87138 282.59645 284.6628 288.11296 291.56309 295.0132 297.0796 299.14598 302.5961 306.04624 311.21525">protected a &#x201c;non-room&#x201d;</tspan><tspan y="-366.72959" x="250.85951 253.96216 257.4123 260.51496 263.9651 265.69017 269.1403 272.24296 273.96803 277.41816 279.14323 282.24589 285.696 290.86503 294.31517 297.7653 300.86796 302.59303 303.97059 307.42073 308.79829">such as a combustible</tspan><tspan y="-359.2826" x="256.54667 259.64933 263.09947 266.5496 269.65226 273.1024 276.55253 277.93009 281.38023 284.83036 286.55543 289.65809 293.10823 296.55836 299.661 303.11116 304.8362">concealed space, </tspan><tspan y="-351.83625" x="251.89145 253.61652 257.06666 260.51679 262.24186 263.61943 267.06956 270.1722 271.54978 274.9999 278.45005 280.1751 283.62525 285.3503 287.07539 290.5255 292.25059 295.7007 299.15086 302.2535 303.97859 305.70365 309.15379">the inside of a duct or</tspan><tspan y="-344.3899" x="261.72377 264.82643 268.27656 271.72669 273.10426 274.4818 277.93196 281.38209 283.10716 284.8322 288.28236 292.76258 296.2127 297.94276 299.66783">cooling tower, </tspan><tspan y="-336.94416" x="274.8312 278.28135 280.0064 283.10908 284.83415">etc.?</tspan><tspan y="-294.61286" x="252.58025 256.71919 260.1693 263.61946 265.3445 269.48347 272.9336 276.03627 277.76133 279.1389 282.58903 286.03916 287.76423 291.21437 292.93943 296.38957 298.11463 301.56477 303.28984 305.0149 308.46504">See Section 2.5.5 for</tspan><tspan y="-287.1665" x="245.68865 247.755 251.20516 254.3078 257.75794 262.92695 268.09596 271.54609 274.99623 278.44636 281.89649 283.62156 284.9991 288.44926 291.89939 295.00205 296.7271 299.82978 303.2799 306.73005 309.8327 311.21028 312.93534 314.3129">recommendations specific</tspan><tspan y="-279.72016" x="253.09964 254.8247 258.27485 259.9999 264.13887 267.589 271.03913 274.14179 275.51936 278.96949 280.34706 282.0721 286.21107 288.27745 291.72758 293.45265 296.90278 300.00544 301.7305 303.10807 306.5582">to Special Protection</tspan><tspan y="-272.2738" x="268.2809 271.38359 274.8337 276.9001 278.27766 281.72779 284.83045 286.208 289.65815 291.72453">sprinklers</tspan><tspan y="-228.54506" x="258.3363 262.47526 265.92539 269.37553 271.1006 275.23954 278.68968 281.79234 283.5174 284.89497 288.3451 291.79524 293.5203 296.97044 298.6955 302.14564">See Section 2.6 </tspan><tspan y="-221.0987" x="252.82352 254.88988 258.34004 261.79017 265.2403 267.30668 270.7568 272.13438 275.5845 279.03465 280.7597 284.55116 289.72016 291.44523 296.27296 297.6505 301.10066 304.55079 308.00093">regarding FM Global</tspan><tspan y="-213.65233" x="261.10017 264.5503 265.92787 269.378 272.82814 274.5532 276.61958 280.0697 283.17237 284.54994 288.00007 292.4803 294.20536 297.6555 299.38056">plan review of </tspan><tspan y="-206.20536" x="256.10243 259.20509 262.6552 264.7216 266.09916 269.5493 272.65196 274.0295 277.47966 279.54603 281.2711 284.72123 286.7876 290.23774 294.71797 296.09553 299.54566 302.9958">sprinkler drawings</tspan><tspan y="-155.5062" x="255.01029 259.14924 262.59938 266.0495 267.77458 271.9135 275.36366 278.4663 280.19139 281.56895 285.01908 288.4692 290.19429 293.6444 295.36949 298.8196 300.54469 302.26976 305.71989">See Section 2.7 for</tspan><tspan y="-148.05983" x="251.38639 254.83654 256.9029 258.96928 262.4194 265.86955 269.31968 270.69725 274.14738 277.5975 278.98503 283.12397 286.22663 289.32929 292.77943 296.22956 297.95463 301.40476 304.8549 307.95756">arranging Acceptance</tspan><tspan y="-140.61347" x="247.95175 251.05442 254.5058 257.60847 259.33354 261.05735 262.7824 266.23255 268.29893 270.02275 273.1254 276.57554 278.6419 280.01948 283.4696 286.57228 287.94984 291.39997 293.46635 295.19017 298.29283 301.39549 304.49815 306.2232 309.67335">Test for sprinkler system</tspan><tspan y="-167.36327" x="418.30464 422.78486 425.8875 427.26509 430.7152 434.16535 435.8904 437.61549 441.0656 444.51576 446.2408 449.69096 453.14109 456.59123 457.96879 459.34635 462.449 465.89915 469.34928 470.72685 474.17698">Using the applicable </tspan><tspan y="-159.9169" x="415.20384 418.3065 421.75663 424.85929 426.58436 427.9619 431.41206 434.86219 436.58726 438.31233 441.76246 445.2126 446.93766 450.3878 452.45417 457.62318 459.00074 462.45088 465.901 467.62608 471.0762 474.52635">section, determine how</tspan><tspan y="-152.47054" x="413.6525 415.37757 418.8277 420.55278 424.0029 426.06929 428.13566 431.5858 435.03593 438.48606 441.9362 443.66127 445.38633 448.83647 452.2866 454.01167 457.11433 460.56446 462.63084 464.0084 467.45854 470.5612 471.93876 475.3889 477.45527">to arrange the sprinklers</tspan><tspan y="-145.02417" x="429.51573 431.24079 434.69093 436.416 439.86613 442.96879 446.4189 447.79649 451.2466 452.97169 456.4218 459.87196 462.9746">to avoid any </tspan><tspan y="-137.5778" x="416.06449 419.51463 422.96476 426.4149 429.51756 432.6202 436.07035 439.52049 441.24555 444.69569 448.1458 449.52339 452.9735 454.69859 457.80125 461.25138 463.31776 464.6953 468.14546 471.2481 472.62568 476.0758">unacceptable sprinkler</tspan><tspan y="-130.13144" x="417.61705 421.06718 422.44474 425.5474 428.65007 432.1002 435.55033 437.6167 441.06684 444.51698 446.24205 449.69218 453.1423 456.24497 457.97004 460.0364 463.48655 466.5892 468.31428 469.69184 473.14198">discharge obstruction</tspan><tspan y="-234.7106" x="419.1671 423.64735 426.75 428.12757 431.5777 435.02784 436.7529 438.47798 441.9281 445.37825 447.1033 450.55345 454.00358 457.4537 458.83128 460.20884 463.3115 466.76164 470.21177 471.58934">Using the applicable</tspan><tspan y="-227.26424" x="419.34458 422.44725 425.89738 429.00004 430.7251 432.10267 435.5528 439.00294 440.728 442.45307 445.9032 449.35334 451.0784 454.52854 456.5949 461.76393 463.14149 466.5916 470.04176 471.7668 473.14439">section, determine if</tspan><tspan y="-219.81787" x="412.79054 414.5156 417.96574 421.41587 423.48225 426.93238 428.65745 430.035 433.13768 434.86274 438.31288 441.763 444.86567 446.59074 447.9683 453.1373 456.58744 460.03758 463.14024 464.8653 466.59037 471.0706 474.52073 477.97087">there is any impact when</tspan><tspan y="-212.3715" x="412.44056 414.16563 417.61576 421.0659 422.79096 425.89363 429.34376 430.7213 432.09889 433.47645 436.92658 440.3767 442.10179 445.20445 446.582 450.03215 453.48228 456.9324 458.65748 462.1076 465.21028 468.31294 471.76307 475.2132 478.66334">the ceiling slope exceeds</tspan><tspan y="-204.92514" x="419.3396 422.78974 424.5148 425.89237 429.3425 431.06758 434.5177 437.96784 439.6929 441.75929 445.2094 448.65956 450.3846 453.83476 457.28489 460.73503 462.8014 466.25154 469.70167 472.80433">2 in 12 (10 degrees)</tspan><tspan y="-303.48268" x="419.16709 423.6473 426.74998 428.12754 431.57768 435.0278 436.75288 438.47795 441.92808 445.3782 447.10328 450.5534 454.00355 457.45368 458.83125 460.2088 463.31147 466.7616 470.21174 471.5893">Using the applicable</tspan><tspan y="-296.03569" x="416.58259 419.68525 423.13539 426.23805 427.9631 429.34068 432.7908 436.24095 437.966 439.69108 443.1412 446.59135 448.3164 451.76655 453.83293 459.00193 460.3795 463.82963 467.27976 469.00483 470.7299 474.18003">section, determine the</tspan><tspan y="-288.58995" x="423.4835 426.93363 428.3112 429.68876 433.1389 437.6191 441.06925 444.51939 445.89695 449.34709 451.07215 454.1748 457.62495 459.6913 461.41639 462.79396 465.8966 469.34675">allowable vertical</tspan><tspan y="-281.14295" x="415.20439 416.58195 420.03208 423.13475 426.58488 428.30995 429.6875 433.13764 436.58778 438.31285 441.76298 443.48805 445.2131 446.93818 450.3883 453.83845 455.5635 458.66618 462.1163 464.18269 465.56025 469.01039 472.11305 473.4906 476.94075">location of the sprinkler</tspan><tspan y="-377.94624" x="419.1677 423.64793 426.75059 428.12815 431.57829 435.0284 436.75349 438.47856 441.92869 445.3788 447.10389 450.55403 454.00416 457.45429 458.83186 460.2094 463.31208 466.7622 470.21235 471.5899">Using the applicable</tspan><tspan y="-370.49989" x="416.5832 419.68586 423.136 426.23866 427.9637 429.34129 432.7914 436.24156 437.9666 439.69169 443.1418 446.59196 448.31703 451.76716 453.83354 459.00254 460.3801 463.83024 467.28038 469.00544 470.7305 474.18064">section, determine the</tspan><tspan y="-363.05354" x="419.85835 423.30848 424.68605 426.0636 429.51374 433.99397 437.4441 440.89424 442.2718 445.72193 447.447 450.89714 454.34727 456.41365 457.7912 460.89387 464.344 467.79414 469.5192 472.96934">allowable horizontal</tspan><tspan y="-355.60655" x="420.03086 423.481 425.54737 427.61375 431.06388 434.514 437.96415 441.41429 446.58329 450.03343 453.48356 455.20863 456.9337 460.38383 462.1089 463.83396 465.55903 469.00917 472.4593">arrangement of the </tspan><tspan y="-348.1602" x="435.3846 438.48728 441.9374 444.00379 445.38136 448.83149 451.93415 453.3117 456.76185">sprinkler</tspan><tspan y="-451.93577" x="419.16706 423.64729 426.74995 428.1275 431.57765 435.02778 436.75285 438.4779 441.92805 445.37818 447.10325 450.55339 454.0035 457.45365 458.8312 460.20878 463.31144 466.76158 470.2117 471.58927">Using the applicable</tspan><tspan y="-444.4894" x="414.1693 417.27198 420.7221 423.82478 425.54985 426.9274 430.37754 433.82768 435.55274 437.2778 440.72795 444.17808 445.90315 449.35328 451.41966 456.58866 457.96623 461.41636 464.8665 466.59156 467.96913 469.69419 471.41926 473.14433 476.59446">section, determine if the</tspan><tspan y="-437.04307" x="413.9968 417.09947 420.5496 421.92716 423.30473 424.68229 428.13243 431.58256 433.30763 436.41029 439.8604 443.31056 446.4132 448.13829 450.20466 453.6548 456.75746 458.4825 459.86009 463.3102 466.76036 468.4854 470.21049 473.31315 476.76329">ceiling construction type</tspan><tspan y="-429.59608" x="421.58528 422.96284 426.0655 427.79057 431.2407 434.69084 438.14097 441.5911 444.69377 446.41883 448.4852 451.93534 455.038 456.76307 460.2132 463.66334 465.3884 468.83854 470.9049">is unobstructed or </tspan><tspan y="-422.14973" x="431.75947 435.2096 438.65974 441.7624 443.48747 445.55384 449.00398 452.10664 453.8317 457.28184 460.73197">obstructed.</tspan><tspan y="-519.1807" x="418.13264 422.27159 425.7217 429.17185 430.8969 435.03587 438.486 441.58866 443.31373 444.69129 448.14143 451.59156 453.31663 456.76676 458.49183 461.94197 463.66703 467.11717 468.84223 470.5673 474.01744">See Section 2.5.4 for</tspan><tspan y="-511.73439" x="421.92469 425.37483 428.82496 432.2751 435.72523 439.17536 442.6255 444.35057 446.07563 449.52577 451.59214 453.3172 456.76734 460.21748 462.28385 463.6614 467.11155 470.56169">pendent or upright</tspan><tspan y="-504.28804" x="422.10527 426.2442 427.96928 431.4194 433.48579 436.9359 440.38606 443.83619 445.56126 448.6639 452.11405 454.18043 455.55799 459.00813 462.11079 463.48835 466.93849 469.00486">Storage sprinklers</tspan><tspan y="-596.59378" x="418.13264 422.27159 425.7217 429.17185 430.8969 435.03587 438.486 441.58866 443.31373 444.69129 448.14143 451.59156 453.31663 456.76676 458.49183 461.94197 463.66703 467.11717 468.84223 470.5673 474.01744">See Section 2.5.2 for</tspan><tspan y="-589.1474" x="421.92469 425.37483 428.82496 432.2751 435.72523 439.17536 442.6255 444.35057 446.07563 449.52577 451.59214 453.3172 456.76734 460.21748 462.28385 463.6614 467.11155 470.56169">pendent or upright</tspan><tspan y="-581.70108" x="418.1407 421.24336 424.69349 426.75987 428.13743 431.58757 434.69023 436.06779 439.5179 441.5843 444.68696 446.41203 448.1371 451.58723 453.6536 455.37867 459.5176 462.96775 466.0704 467.79548 469.17304 472.62318">sprinklers, or Section</tspan><tspan y="-574.2541" x="423.82786 427.27799 429.00306 432.4532 434.17826 437.6284 439.35346 441.07853 444.52867 446.59504 448.3201 451.42277 452.80033 456.25047 459.7006 464.18083 467.63096 469.0085">2.5.3 for sidewall</tspan><tspan y="-566.80838" x="433.8339 436.93656 440.3867 442.45307 443.83064 447.28077 450.38343 451.761 455.21113 457.2775">sprinklers</tspan><tspan y="-369.3495" x="336.73338 341.21485">No</tspan><tspan y="-320.883" x="266.5328 270.10209 273.55348">Yes</tspan></text>
<path transform="matrix(1,0,0,-1,322.65,527.567)" stroke-width="1.034" stroke-linecap="butt" stroke-miterlimit="10" stroke-linejoin="miter" fill="none" stroke="#030404" d="M0 0H-82.855V41.896H0Z"/>
<path transform="matrix(1,0,0,-1,446.93299,164.83103)" stroke-width="1.034" stroke-linecap="butt" stroke-miterlimit="10" stroke-linejoin="miter" fill="none" stroke="#030404" d="M0 0V-10.867"/>
<path transform="matrix(1,0,0,-1,443.103,172.79303)" d="M0 0 3.83-1.627 7.66 0 3.83-9.078 0 0" fill="#030404"/>
<text fill="#030404" xml:space="preserve" transform="matrix(1 0 -0 1 -.176 792)" font-size="6.2053" font-family="ArialMT"><tspan y="-659.6963" x="495.1184 499.59989">No</tspan><tspan y="-618.6495" x="430.94258 434.51185 437.96324">Yes</tspan></text>
<path transform="matrix(1,0,0,-1,405.505,206.84497)" stroke-width="1.034" stroke-linecap="butt" stroke-miterlimit="10" stroke-linejoin="miter" fill="none" stroke="#030404" d="M0 0H-19.148V-147.194H-6.174"/>
<path transform="matrix(1,0,0,-1,396.427,357.869)" d="M0 0 1.627 3.83 0 7.66 9.078 3.83 0 0" fill="#030404"/>
<path transform="matrix(1,0,0,-1,405.505,640.806)" stroke-width="1.034" stroke-linecap="butt" stroke-miterlimit="10" stroke-linejoin="miter" fill="none" stroke="#030404" d="M0 0H-37.607V69.072H-76.68"/>
<path transform="matrix(1,0,0,-1,331.729,567.904)" d="M0 0-1.627-3.83 0-7.66-9.078-3.83 0 0" fill="#030404"/>
<path transform="matrix(1,0,0,-1,488.36003,136.62403)" stroke-width="1.034" stroke-linecap="butt" stroke-miterlimit="10" stroke-linejoin="miter" fill="none" stroke="#030404" d="M0 0-41.427-29.573-82.855 0-41.427 29.573 0 0Z"/>
<text fill="#030404" xml:space="preserve" transform="matrix(1 0 -0 1 -.176 792)" font-size="6.2053" font-family="ArialMT"><tspan y="-666.3151" x="439.5205 441.24559 444.34825 446.0733 447.79838 451.2485">Is the</tspan><tspan y="-658.8688" x="423.65107 427.1012 430.20387 433.30653 436.75666 440.2068 443.65693 447.10707 450.20973 453.31239 455.03746 456.7625 460.21266 461.9377 465.38786 468.83799">occupancy to be </tspan><tspan y="-651.4224" x="418.13209 421.5822 423.6486 427.09873 428.8238 432.27394 435.3766 437.10166 440.5518 444.00193 445.727 448.82966 452.2798 455.72993 458.83259 460.21015 463.66029 467.1104 469.1768 472.62693">protected considered</tspan><tspan y="-643.9761" x="428.82505 432.27519 435.7253 439.17546 441.24183 444.34449 446.06956 449.51969 451.58607 455.0362 458.48634 461.93647">non-storage?</tspan></text>
<path transform="matrix(1,0,0,-1,89.800998,395.002)" stroke-width="598.677" stroke-linecap="butt" stroke-miterlimit="10" stroke-linejoin="miter" fill="none" stroke="#000000" d="M0 0H.499"/>
<path transform="matrix(1,0,0,-1,90.299999,95.913028)" stroke-width=".499" stroke-linecap="butt" stroke-miterlimit="10" stroke-linejoin="miter" fill="none" stroke="#000000" d="M0 0H430.549"/>
<path transform="matrix(1,0,0,-1,520.35,395.002)" stroke-width="598.677" stroke-linecap="butt" stroke-miterlimit="10" stroke-linejoin="miter" fill="none" stroke="#000000" d="M0 0H.499"/>
<path transform="matrix(1,0,0,-1,89.800998,694.091)" stroke-width=".499" stroke-linecap="butt" stroke-miterlimit="10" stroke-linejoin="miter" fill="none" stroke="#000000" d="M0 0H430.549"/>
<text xml:space="preserve" transform="matrix(1 0 -0 1 -.176 792)" font-size="7.9824" font-family="Nimbus Sans" font-style="italic"><tspan y="-86.4341" x="151.2 156.07724 157.84934 162.28755 167.1624 171.60062 173.81972 178.25794 180.47704 184.91526 189.7901 194.66735 196.43944 200.87766 206.64095 210.63214 215.07036 219.50858 222.16672 227.04157 229.26067 233.69889 239.01277 243.45099 247.8892 251.8804 253.6525 258.0907 262.5289 264.74803 266.5201 270.9583 278.05226 280.27137 284.70957 291.8035 293.5756 298.0138 302.005 304.22413 308.66233 310.43443 312.2065 316.6447 318.86384 320.63594 325.07414 332.16807 334.8262 339.2644 343.2556 347.69383 354.34318 360.99253 365.43074 369.86894 374.30714 378.74534 380.96446 382.73655 387.17475 391.61296 398.2599 400.03199 407.12593 409.34504 413.78324 415.55534 422.20228 426.64048 431.07868 433.2978 440.39173 444.38294 448.82115 453.25935 457.69755">Fig.2.1.1.Flowchartfornavigatingtheinstallationrecommendationsinthisdatasheet</tspan></text>
<text fill="#4d4d64" xml:space="preserve" transform="matrix(1 0 -0 1 -.176 792)" font-size="15.9647" font-family="Nimbus Sans" font-weight="bold"><tspan y="-760.6942" x="89.9773 94.41549 104.16992 113.046298 118.36254 127.238918 131.67711 136.1153 144.99167 150.3079 154.7461 164.50052 179.5696 191.99013 201.74456 206.18274 215.93717 224.81354 229.25173 233.68991 243.44434 252.32071 266.51173 271.82798 281.5824 292.51823 304.04475 313.79917 319.11543 328.86985 343.06248 351.93885 357.2551 361.6933 375.8843 386.53279 396.2872 402.49748 406.93568 416.6901 425.56648 430.00468 438.88105 445.0913 498.02388 506.90025 512.2165">InstallationGuidelinesforAutomaticSprinklers2-0</tspan></text>
<path transform="matrix(1,0,0,-1,89.800998,36.794008)" stroke-width=".998" stroke-linecap="butt" stroke-miterlimit="10" stroke-linejoin="miter" fill="none" stroke="#000000" d="M0 0H431.048"/>
<text xml:space="preserve" transform="matrix(1 0 -0 1 -.176 792)" font-size="8.9802" font-family="Nimbus Sans" font-weight="bold"><tspan y="-744.2306" x="89.9773 95.4642 105.93242 111.92221 115.41551 120.90241 126.38931 131.38231 134.87561 137.86602 145.84673 151.33364 156.82054 161.81354 169.79425 175.78404 179.27735 184.27034 189.26334 194.25634 199.74324 202.73365 205.23014 210.71704 219.19167 225.67537 230.66837 233.65877 241.63948 247.62928 253.11618 258.10917 263.10215 266.09257">FMPropertyLossPreventionDataSheets</tspan></text>
<text xml:space="preserve" transform="matrix(1 0 -0 1 -.176 792)" font-size="8.9802" font-family="Nimbus Sans"><tspan y="-744.2306" x="492.13218 498.12199 503.11497 508.10795 516.0887">Page9</tspan></text>
<text xml:space="preserve" transform="matrix(1 0 -0 1 -.176 792)" font-size="6.9846" font-family="Nimbus Sans"><tspan y="-21.0785" x="198.2494 203.39705 207.28049 211.16393 215.04737 218.9308 221.25667 225.1401 229.02355 232.90699 239.1149 243.38249 247.26593 250.75823 252.69995 256.58338 258.90925 264.726 270.5442 274.4276 276.36933 280.25276 284.13618 288.0112 289.9529 293.83638 297.32868 301.2121 303.53797 307.4214 311.3048 314.79713 321.005 326.04789 329.93135 335.7495 339.63294 343.51637 347.39979 350.37593 354.25935 358.91807 360.46864 364.34367 366.66954 368.2201 372.10353 375.98695 377.92866 383.74543 386.0713 389.9547 393.44703 397.33045 399.6563 403.14863 407.03205 410.91548">&#x00a9;2021-2025FactoryMutualInsuranceCompany.Allrightsreserved.</tspan></text>
</g>
</svg>
